<svg width="328" height="105" viewBox="0 0 328 105" fill="none" xmlns="http://www.w3.org/2000/svg">
<path d="M31.9346 84.5868C31.1668 84.0322 30.5945 83.2496 30.2997 82.3511C30.0049 81.4525 30.0027 80.484 30.2934 79.5841L31.2322 75.7107C31.3999 75.0298 31.7092 74.3916 32.1401 73.8376C32.571 73.2835 33.1138 72.826 33.7335 72.4947L36.8153 70.8795C38.7164 69.8941 40.2344 68.3055 41.1298 66.3645C42.0253 64.4234 42.2471 62.2403 41.7605 60.1596L41.7175 59.9666C41.1469 57.6366 39.7252 55.6026 37.7304 54.2623C35.7356 52.9221 33.3111 52.3722 30.9312 52.72L27.4839 53.2131C26.783 53.3134 26.0688 53.2647 25.3882 53.07C24.7076 52.8754 24.076 52.5394 23.5349 52.0839L20.489 49.504C19.733 48.94 19.1716 48.1554 18.8827 47.2591C18.5938 46.3627 18.5916 45.399 18.8764 44.5014C19.5249 42.5126 19.5063 40.3674 18.8235 38.3901C18.1406 36.4128 16.8307 34.7111 15.0917 33.5422C13.3527 32.3733 11.2792 31.8009 9.185 31.9115C7.09075 32.0221 5.08959 32.8098 3.48417 34.1553C1.87875 35.5009 0.756407 37.3311 0.286876 39.3693C-0.182654 41.4074 0.0261725 43.5426 0.881772 45.4519C1.73737 47.3612 3.1932 48.9407 5.02909 49.9516C6.86497 50.9625 8.98104 51.3498 11.0573 51.0548C11.3941 51.0048 11.7238 50.9333 12.0535 50.8547L12.9493 50.6832C13.6934 50.5365 14.4611 50.56 15.1948 50.7519C15.9284 50.9438 16.6089 51.299 17.185 51.7909L21.3275 55.3642C21.9606 55.9171 22.4441 56.6199 22.7334 57.4079C23.0227 58.196 23.1086 59.0439 22.9831 59.8737L22.8827 60.5026L22.7967 61.0529V61.103C22.6621 62.25 22.7349 63.4119 23.0117 64.5333C23.0117 64.5977 23.0117 64.662 23.0619 64.7192V64.7906C23.4591 66.3115 24.2273 67.7109 25.298 68.8642C25.427 69 25.556 69.1286 25.6922 69.2573L26.1437 69.7075C26.7398 70.3101 27.1728 71.0537 27.4021 71.8686C27.6315 72.6836 27.6498 73.5432 27.4552 74.3671L26.1939 79.6627C26.0204 80.3988 25.6803 81.0855 25.1995 81.6702C24.7188 82.2549 24.1101 82.7221 23.4202 83.036L22.6462 83.3933C22.3303 83.5162 22.0216 83.657 21.7217 83.8149C20.3119 84.5569 19.1098 85.6377 18.2242 86.9594C16.7606 89.052 16.1905 91.6386 16.6395 94.1502C17.0884 96.6618 18.5195 98.8928 20.618 100.352C22.7164 101.812 25.3104 102.38 27.8292 101.932C30.3479 101.485 32.5852 100.058 34.0488 97.9652C34.915 96.7812 35.4962 95.4143 35.7474 93.9703C35.8131 93.6446 35.8586 93.3153 35.8836 92.984L35.9839 92.1408C35.9266 90.6581 35.5324 89.2077 34.8309 87.8992C34.1294 86.5906 33.1391 85.458 31.9346 84.5868Z" fill="#1B1C21" fill-opacity="0.2"/>
<path d="M105.642 38.5692C105.134 37.0177 104.239 35.6203 103.041 34.5082C101.842 33.3961 100.381 32.6058 98.7923 32.2115C97.204 31.8171 95.5412 31.8317 93.96 32.2537C92.3789 32.6757 90.9311 33.4915 89.7528 34.6243C89.5014 34.8498 89.2622 35.0884 89.0361 35.339L88.4555 35.9679C87.9417 36.5227 87.3085 36.9543 86.6034 37.2303C85.8984 37.5063 85.1399 37.6196 84.3847 37.5616L78.9378 37.1185C78.091 37.0486 77.2758 36.7653 76.5688 36.2953C75.8618 35.8253 75.2861 35.1839 74.8957 34.4313L74.609 33.8668C74.523 33.6952 74.4442 33.5309 74.351 33.3736V33.3236C73.7852 32.3139 73.0396 31.4154 72.1507 30.6722L72.0074 30.5579L71.9429 30.5007C70.7234 29.5087 69.2791 28.8291 67.7359 28.5211H67.6786L67.1267 28.4282L66.4888 28.3781C65.6512 28.2414 64.862 27.895 64.1951 27.3713C63.5283 26.8476 63.0056 26.1637 62.676 25.3837L60.569 20.3811C60.2787 19.6823 60.151 18.9269 60.1957 18.1718C60.2404 17.4167 60.4562 16.6816 60.827 16.0216L61.2498 15.307C61.4314 15.0211 61.5962 14.7281 61.7443 14.4279C62.3933 13.1142 62.7293 11.6688 62.7262 10.2043C62.6577 7.69753 61.6109 5.31637 59.8086 3.56749C58.0063 1.8186 55.5907 0.840054 53.0759 0.840054C50.5611 0.840054 48.1455 1.8186 46.3432 3.56749C44.5409 5.31637 43.4941 7.69753 43.4256 10.2043C43.4225 11.6688 43.7585 13.1142 44.4075 14.4279C44.5604 14.7281 44.7252 15.0211 44.902 15.307L45.3249 16.0216C45.6956 16.6816 45.9114 17.4167 45.9561 18.1718C46.0008 18.9269 45.8732 19.6823 45.5829 20.3811L43.4758 25.3837C43.1487 26.1601 42.6305 26.8416 41.969 27.365C41.3075 27.8885 40.5242 28.2369 39.6916 28.3781L39.0681 28.4782L38.5091 28.5711H38.4589C37.3194 28.7949 36.2309 29.2261 35.2481 29.8432L35.1048 29.9361C35.076 29.9485 35.0494 29.9654 35.026 29.9861C33.6967 30.8361 32.6007 32.0028 31.8367 33.3808V33.4308C31.7507 33.588 31.6647 33.7596 31.5858 33.9239C27.6727 42.2998 36.2372 46.9451 37.3194 47.2309C38.6412 47.6292 40.0308 47.7535 41.4027 47.5962C42.7745 47.4389 44.0995 47.0033 45.2962 46.3162L45.4754 46.2018C47.5174 44.9383 49.0116 42.9587 49.6641 40.6523C50.3166 38.3459 50.0803 35.8796 49.0015 33.7381L47.4391 30.5936C47.1267 29.9598 46.9524 29.2672 46.9277 28.5614C46.903 27.8556 47.0284 27.1526 47.2958 26.4986L48.7865 22.8109C49.088 21.9196 49.6624 21.145 50.4287 20.5964C51.195 20.0477 52.1146 19.7526 53.058 19.7526C54.0014 19.7526 54.921 20.0477 55.6873 20.5964C56.4536 21.145 57.0279 21.9196 57.3295 22.8109L58.8489 26.4986C59.1173 27.1521 59.244 27.8548 59.2205 28.5606C59.197 29.2664 59.024 29.9593 58.7127 30.5936L57.1718 33.7095C56.2116 35.6264 55.9228 37.8088 56.3514 39.9085C56.7801 42.0081 57.9016 43.9042 59.5369 45.2942L59.6874 45.43C60.9399 46.4828 62.4411 47.1995 64.0489 47.5122C65.6568 47.8248 67.318 47.7231 68.8754 47.2166C70.3036 46.7623 71.6031 45.976 72.6668 44.9226L75.168 42.4999C75.6721 42.0002 76.2778 41.6141 76.9441 41.3676C77.6105 41.121 78.3221 41.0197 79.031 41.0705L83.0158 41.3707C83.9587 41.383 84.8743 41.6875 85.6358 42.242C86.3973 42.7965 86.967 43.5734 87.2658 44.4652C87.875 46.3376 89.4159 49.9324 95.0563 51.0115C96.6777 51.2402 98.3309 51.0537 99.8602 50.4698C101.389 49.8859 102.745 48.9237 103.798 47.6736C104.852 46.4235 105.569 44.9268 105.883 43.3241C106.197 41.7214 106.097 40.0655 105.592 38.5121L105.642 38.5692Z" fill="#EC1D35"/>
<path d="M70.8087 53.0915C69.5015 53.5406 68.3015 54.2543 67.2841 55.1877C66.2666 56.1212 65.4535 57.2542 64.8959 58.5158C64.8959 58.5801 64.8386 58.6444 64.8171 58.7087C63.919 60.9294 63.8824 63.404 64.7145 65.6501C65.5466 67.8962 67.1877 69.7528 69.3179 70.858L72.4069 72.4731C73.0321 72.8037 73.5801 73.2624 74.0149 73.8191C74.4496 74.3759 74.7614 75.018 74.9297 75.7034L75.8757 79.5769C76.165 80.4755 76.1623 81.4422 75.8681 82.3392C75.5739 83.2362 75.0032 84.0177 74.2374 84.5722C73.4716 85.1268 72.5497 85.426 71.6033 85.4273C70.6568 85.4286 69.7341 85.1319 68.9668 84.5795L65.5625 82.4927C64.9589 82.1254 64.44 81.635 64.0398 81.0536C63.6396 80.4723 63.3672 79.8132 63.2404 79.1195L62.6527 75.6963C62.3036 73.5832 61.2563 71.6471 59.6773 70.1956C58.0983 68.7441 56.0781 67.8604 53.9377 67.6849H53.7298C51.3316 67.5118 48.9549 68.238 47.0656 69.7213C45.1764 71.2047 43.9108 73.3381 43.5169 75.7034C42.1552 83.8506 49.5013 86.502 52.3466 86.8664H52.6118C54.184 86.9561 55.7542 86.6591 57.1843 86.0017H57.2345L57.7362 85.7516L58.3023 85.4657C59.0608 85.0846 59.9038 84.9018 60.7524 84.9343C61.601 84.9668 62.4275 85.2136 63.1544 85.6515L67.82 88.5102C68.4682 88.9024 69.0176 89.4374 69.4264 90.0741C69.8351 90.7108 70.0922 91.4324 70.178 92.1835L70.2783 93.0268C70.3008 93.3647 70.3415 93.701 70.4002 94.0345C70.6805 95.6453 71.3676 97.1583 72.3967 98.4309C73.4258 99.7036 74.7629 100.694 76.2821 101.309C77.8013 101.923 79.4524 102.142 81.0799 101.944C82.7073 101.746 84.2574 101.139 85.5841 100.178C86.9107 99.2175 87.9702 97.9359 88.6626 96.454C89.3549 94.9721 89.6575 93.3388 89.5416 91.7081C89.4257 90.0773 88.8952 88.5029 88.0002 87.1331C87.1052 85.7634 85.8751 84.6436 84.4259 83.8791C84.1249 83.7219 83.8167 83.5861 83.5013 83.4575L82.7273 83.1002C82.0382 82.7871 81.4301 82.321 80.9494 81.7376C80.4687 81.1542 80.1281 80.4689 79.9537 79.7341L78.6923 74.4313C78.4978 73.6074 78.516 72.7478 78.7454 71.9328C78.9748 71.1179 79.4078 70.3743 80.0039 69.7717L80.4554 69.3215C80.5915 69.1928 80.7206 69.0642 80.8496 68.9284V68.8855C81.6389 68.0395 82.2657 67.0559 82.6986 65.984L82.7631 65.8196V65.741C83.3324 64.2776 83.5341 62.6976 83.3508 61.1386V61.0814C82.0751 51.7694 72.8728 52.3268 70.8087 53.0915Z" fill="#402FFF"/>
<path d="M151.716 94.2839V86.6871H142.399C140.276 86.6401 138.202 86.0442 136.379 84.9576C134.372 83.7784 130.817 79.8692 129.721 78.3184C128.64 76.6401 128.1 74.6727 128.173 72.6797V45.2938C128.091 43.2751 128.631 41.2797 129.721 39.5765C130.817 38.1472 134.372 34.2094 136.379 33.0231C138.204 31.942 140.277 31.3488 142.399 31.3008H151.716V23.9254H161.843V31.2865H170.938C173.058 31.3458 175.129 31.9383 176.958 33.0088C178.965 34.1951 182.434 38.1043 183.623 39.5622C184.71 41.2669 185.25 43.2612 185.171 45.2795V72.6654C185.241 74.658 184.701 76.6245 183.623 78.3041C182.434 79.8549 178.965 83.7641 176.958 84.9433C175.131 86.0192 173.059 86.6143 170.938 86.6728H161.843V94.2696L151.716 94.2839ZM142.621 76.0458H151.716V41.9278H142.714C141.431 42.9156 140.294 44.0802 139.339 45.3867V72.6797C140.267 73.9515 141.372 75.0849 142.621 76.0458ZM174.041 45.3153C173.164 44.001 172.052 42.8598 170.759 41.9492H161.843V76.0672H170.665C171.904 75.0639 173.035 73.936 174.041 72.7011V45.3153Z" fill="#1B1C21"/>
<path d="M233.411 47.6591C232.412 45.3113 230.726 43.3187 228.573 41.9418H212.362C210.99 42.9667 209.781 44.1932 208.778 45.5794V72.6937C209.698 74.075 210.924 75.2268 212.362 76.0598H228.753C230.717 74.6329 232.313 72.7616 233.411 70.5998L243.81 73.1511C243.056 75.2265 242.011 77.185 240.707 78.9685C238.514 82.0629 234.257 86.7011 228.667 86.7011H211.903C209.782 86.6417 207.711 86.0467 205.883 84.9716C203.969 83.7924 200.5 80.1548 199.225 78.4253C198.195 76.7246 197.657 74.7732 197.669 72.7866V45.2007C197.588 43.2056 198.131 41.2346 199.225 39.562C200.314 38.1326 203.876 34.2878 205.976 33.0085C207.784 31.9679 209.817 31.3771 211.903 31.2862H228.674C234.235 31.2862 238.435 35.9243 240.621 38.9259C241.916 40.7075 242.96 42.6576 243.724 44.7218L233.411 47.6591Z" fill="#1B1C21"/>
<path d="M289.034 86.237V42.2924H265.978V86.237H254.847V34.717C254.851 33.9126 255.173 33.1422 255.744 32.5734C256.314 32.0046 257.087 31.6834 257.893 31.6796H297.118C297.925 31.6834 298.697 32.0046 299.268 32.5734C299.838 33.1422 300.16 33.9126 300.164 34.717V86.2727L289.034 86.237Z" fill="#1B1C21"/>
</svg>
